<svg xmlns="http://www.w3.org/2000/svg" xmlns:xlink="http://www.w3.org/1999/xlink" viewBox="0 0 141.87 162.64"><defs><style>.cls-1{fill:none;}.cls-2{clip-path:url(#clip-path);}.cls-3{fill:#363636;}.cls-4{fill:#f97c6b;}.cls-5{fill:#f04627;}.cls-6{fill:#9dc9b3;}.cls-7{fill:#cc9a62;}</style><clipPath id="clip-path" transform="translate(5.89 5.08)"><rect class="cls-1" width="119.93" height="152.03"/></clipPath></defs><g id="Layer_2" data-name="Layer 2"><g id="图层_1" data-name="图层 1"><g class="cls-2"><rect class="cls-3" x="5.89" y="5.08" width="119.93" height="152.03"/><path class="cls-4" d="M32,27.52l-.07-32.6H29.63c-9,0-16.23,1.14-16.22,2.5l.05,25.44h5a5.84,5.84,0,0,1,5.86,5.83l0,6.47,10.19,0,0,18.67,9.84,0c9,0,16.22-1.14,16.22-2.51l-.05-23.83Z" transform="translate(5.89 5.08)"/><path class="cls-5" d="M52.77,69.55V45.43H30.27V90.24h16c11.67,0,21.13,1.44,21.13,3.22v39.22h12.7V85.59c-8.2-.44-14.08-1.63-14.08-3V69.74H59.81C57.34,69.74,55,69.67,52.77,69.55Z" transform="translate(5.89 5.08)"/><path class="cls-5" d="M95.77,22V95c6.67.36,13.85.55,21.33.55H136V22Z" transform="translate(5.89 5.08)"/><path class="cls-6" d="M97.42,69.45,85,67.65l-10.36,71c-.39,2.68,10.52,6.59,26.09,9.73l9.08-62.24A14.71,14.71,0,0,0,97.42,69.45Z" transform="translate(5.89 5.08)"/><path class="cls-7" d="M15.84,70.71H-5.89v86.85H44.49V77.28C44.49,73.65,31.66,70.71,15.84,70.71Z" transform="translate(5.89 5.08)"/></g></g></g></svg>