<svg xmlns="http://www.w3.org/2000/svg" viewBox="0 0 119.93 152.03"><defs><style>.cls-1{fill:#607272;}.cls-2{fill:none;}.cls-3{fill:#f04627;}.cls-4{fill:#9e65a0;}</style></defs><g id="Layer_2" data-name="Layer 2"><g id="图层_1" data-name="图层 1"><rect class="cls-1" width="119.93" height="152.03"/><polygon class="cls-2" points="65.48 100.41 69.11 115.07 72.74 100.41 69.11 85.75 65.48 100.41"/><polygon class="cls-2" points="46.92 100.41 50.55 115.07 54.18 100.41 50.55 85.75 46.92 100.41"/><polygon class="cls-2" points="84.03 100.41 87.66 115.07 91.29 100.41 87.66 85.75 84.03 100.41"/><polygon class="cls-2" points="74.75 100.41 78.39 115.07 82.02 100.41 78.39 85.75 74.75 100.41"/><polygon class="cls-2" points="37.64 100.41 41.27 115.07 44.91 100.41 41.27 85.75 37.64 100.41"/><polygon class="cls-2" points="9.81 100.41 13.44 115.07 17.07 100.41 13.44 85.75 9.81 100.41"/><polygon class="cls-2" points="106.22 115.07 109.85 100.41 106.22 85.75 102.59 100.41 106.22 115.07"/><polygon class="cls-2" points="28.37 100.41 32 115.07 35.63 100.41 32 85.75 28.37 100.41"/><polygon class="cls-2" points="19.09 100.41 22.72 115.07 26.35 100.41 22.72 85.75 19.09 100.41"/><polygon class="cls-2" points="93.31 100.41 96.94 115.07 100.57 100.41 96.94 85.75 93.31 100.41"/><polygon class="cls-2" points="56.2 100.41 59.83 115.07 63.46 100.41 59.83 85.75 56.2 100.41"/><polygon class="cls-3" points="9.81 51.96 13.44 37.3 11.07 27.74 13.44 18.18 9.81 3.52 7.8 3.52 1.79 27.74 7.8 51.96 9.81 51.96"/><polygon class="cls-3" points="9.81 100.41 9.81 100.41 13.44 85.75 11.07 76.19 13.44 66.63 9.81 51.97 7.8 51.97 1.79 76.19 7.8 100.41 7.8 100.41 9.81 100.41"/><polygon class="cls-3" points="13.44 115.07 9.81 100.41 9.81 100.42 7.8 100.42 7.8 100.41 1.79 124.63 7.8 148.85 9.81 148.85 13.44 134.19 11.07 124.63 13.44 115.07"/><polygon class="cls-3" points="9.81 100.42 9.81 100.41 9.81 100.41 7.8 100.41 7.8 100.41 7.8 100.42 9.81 100.42"/><polygon class="cls-3" points="13.44 37.3 17.07 51.96 19.09 51.96 22.72 37.3 20.35 27.74 22.72 18.18 19.09 3.52 17.07 3.52 13.44 18.18 15.81 27.74 13.44 37.3"/><polygon class="cls-4" points="13.44 37.3 15.81 27.74 13.44 18.18 11.07 27.74 13.44 37.3"/><polygon class="cls-3" points="13.44 85.75 17.07 100.41 17.07 100.41 19.09 100.41 19.09 100.41 22.72 85.75 20.35 76.19 22.72 66.63 19.09 51.97 17.07 51.97 13.44 66.63 15.81 76.19 13.44 85.75"/><polygon class="cls-4" points="13.44 85.75 15.81 76.19 13.44 66.63 11.07 76.19 13.44 85.75"/><polygon class="cls-3" points="22.72 115.07 19.09 100.41 19.09 100.42 17.07 100.42 17.07 100.41 13.44 115.07 15.81 124.63 13.44 134.19 17.07 148.85 19.09 148.85 22.72 134.19 20.35 124.63 22.72 115.07"/><polygon class="cls-4" points="13.44 115.07 11.07 124.63 13.44 134.19 15.81 124.63 13.44 115.07"/><polygon class="cls-3" points="17.07 100.41 17.07 100.41 17.07 100.42 19.09 100.42 19.09 100.41 19.09 100.41 17.07 100.41"/><polygon class="cls-3" points="22.72 37.3 26.35 51.96 28.36 51.96 32 37.3 29.63 27.74 32 18.18 28.36 3.52 26.35 3.52 22.72 18.18 25.09 27.74 22.72 37.3"/><polygon class="cls-4" points="22.72 37.3 25.09 27.74 22.72 18.18 20.35 27.74 22.72 37.3"/><polygon class="cls-3" points="22.72 85.75 26.35 100.41 26.35 100.41 28.36 100.41 28.37 100.41 32 85.75 29.63 76.19 32 66.63 28.36 51.97 26.35 51.97 22.72 66.63 25.09 76.19 22.72 85.75"/><polygon class="cls-4" points="22.72 85.75 25.09 76.19 22.72 66.63 20.35 76.19 22.72 85.75"/><polygon class="cls-3" points="32 115.07 28.37 100.41 28.36 100.42 26.35 100.42 26.35 100.41 22.72 115.07 25.09 124.63 22.72 134.19 26.35 148.85 28.36 148.85 32 134.19 29.63 124.63 32 115.07"/><polygon class="cls-4" points="22.72 115.07 20.35 124.63 22.72 134.19 25.09 124.63 22.72 115.07"/><polygon class="cls-3" points="26.35 100.41 26.35 100.41 26.35 100.42 28.36 100.42 28.37 100.41 28.36 100.41 26.35 100.41"/><polygon class="cls-3" points="32 37.3 35.63 51.96 37.64 51.96 41.27 37.3 38.91 27.74 41.27 18.18 37.64 3.52 35.63 3.52 32 18.18 34.37 27.74 32 37.3"/><polygon class="cls-4" points="32 37.3 34.37 27.74 32 18.18 29.63 27.74 32 37.3"/><polygon class="cls-3" points="32 85.75 35.63 100.41 35.63 100.41 37.64 100.41 37.64 100.41 41.27 85.75 38.91 76.19 41.27 66.63 37.64 51.97 35.63 51.97 32 66.63 34.37 76.19 32 85.75"/><polygon class="cls-4" points="32 85.75 34.37 76.19 32 66.63 29.63 76.19 32 85.75"/><polygon class="cls-3" points="41.27 115.07 37.64 100.41 37.64 100.42 35.63 100.42 35.63 100.41 32 115.07 34.37 124.63 32 134.19 35.63 148.85 37.64 148.85 41.27 134.19 38.91 124.63 41.27 115.07"/><polygon class="cls-4" points="32 115.07 29.63 124.63 32 134.19 34.37 124.63 32 115.07"/><polygon class="cls-3" points="35.63 100.41 35.63 100.41 35.63 100.42 37.64 100.42 37.64 100.41 37.64 100.41 35.63 100.41"/><polygon class="cls-3" points="41.27 37.3 44.91 51.96 46.92 51.96 50.55 37.3 48.18 27.74 50.55 18.18 46.92 3.52 44.91 3.52 41.27 18.18 43.64 27.74 41.27 37.3"/><polygon class="cls-4" points="41.27 37.3 43.64 27.74 41.27 18.18 38.91 27.74 41.27 37.3"/><polygon class="cls-3" points="41.27 85.75 44.91 100.41 44.91 100.41 46.92 100.41 46.92 100.41 50.55 85.75 48.18 76.19 50.55 66.63 46.92 51.97 44.91 51.97 41.27 66.63 43.64 76.19 41.27 85.75"/><polygon class="cls-4" points="41.27 85.75 43.64 76.19 41.27 66.63 38.91 76.19 41.27 85.75"/><polygon class="cls-3" points="50.55 115.07 46.92 100.41 46.92 100.42 44.91 100.42 44.91 100.41 41.27 115.07 43.64 124.63 41.27 134.19 44.91 148.85 46.92 148.85 50.55 134.19 48.18 124.63 50.55 115.07"/><polygon class="cls-4" points="41.27 115.07 38.91 124.63 41.27 134.19 43.64 124.63 41.27 115.07"/><polygon class="cls-3" points="44.91 100.41 44.91 100.41 44.91 100.42 46.92 100.42 46.92 100.41 46.92 100.41 44.91 100.41"/><polygon class="cls-3" points="50.55 37.3 54.19 51.96 56.2 51.96 59.83 37.3 57.46 27.74 59.83 18.18 56.2 3.52 54.19 3.52 50.55 18.18 52.92 27.74 50.55 37.3"/><polygon class="cls-4" points="50.55 37.3 52.92 27.74 50.55 18.18 48.18 27.74 50.55 37.3"/><polygon class="cls-3" points="50.55 85.75 54.18 100.41 54.19 100.41 56.2 100.41 56.2 100.41 59.83 85.75 57.46 76.19 59.83 66.63 56.2 51.97 54.19 51.97 50.55 66.63 52.92 76.19 50.55 85.75"/><polygon class="cls-4" points="50.55 85.75 52.92 76.19 50.55 66.63 48.18 76.19 50.55 85.75"/><polygon class="cls-3" points="59.83 115.07 56.2 100.41 56.2 100.42 54.19 100.42 54.18 100.41 50.55 115.07 52.92 124.63 50.55 134.19 54.19 148.85 56.2 148.85 59.83 134.19 57.46 124.63 59.83 115.07"/><polygon class="cls-4" points="50.55 115.07 48.18 124.63 50.55 134.19 52.92 124.63 50.55 115.07"/><polygon class="cls-3" points="54.19 100.41 54.18 100.41 54.19 100.42 56.2 100.42 56.2 100.41 56.2 100.41 54.19 100.41"/><polygon class="cls-3" points="59.83 37.3 63.46 51.96 65.47 51.96 69.11 37.3 66.74 27.74 69.11 18.18 65.47 3.52 63.46 3.52 59.83 18.18 62.2 27.74 59.83 37.3"/><polygon class="cls-4" points="59.83 37.3 62.2 27.74 59.83 18.18 57.46 27.74 59.83 37.3"/><polygon class="cls-3" points="59.83 85.75 63.46 100.41 63.46 100.41 65.47 100.41 65.48 100.41 69.11 85.75 66.74 76.19 69.11 66.63 65.47 51.97 63.46 51.97 59.83 66.63 62.2 76.19 59.83 85.75"/><polygon class="cls-4" points="59.83 85.75 62.2 76.19 59.83 66.63 57.46 76.19 59.83 85.75"/><polygon class="cls-3" points="69.11 115.07 65.48 100.41 65.47 100.42 63.46 100.42 63.46 100.41 59.83 115.07 62.2 124.63 59.83 134.19 63.46 148.85 65.47 148.85 69.11 134.19 66.74 124.63 69.11 115.07"/><polygon class="cls-4" points="59.83 115.07 57.46 124.63 59.83 134.19 62.2 124.63 59.83 115.07"/><polygon class="cls-3" points="63.46 100.41 63.46 100.41 63.46 100.42 65.47 100.42 65.48 100.41 65.47 100.41 63.46 100.41"/><polygon class="cls-3" points="69.11 37.3 72.74 51.96 74.75 51.96 78.39 37.3 76.02 27.74 78.39 18.18 74.75 3.52 72.74 3.52 69.11 18.18 71.48 27.74 69.11 37.3"/><polygon class="cls-4" points="69.11 37.3 71.48 27.74 69.11 18.18 66.74 27.74 69.11 37.3"/><polygon class="cls-3" points="69.11 85.75 72.74 100.41 72.74 100.41 74.75 100.41 74.75 100.41 78.39 85.75 76.02 76.19 78.39 66.63 74.75 51.97 72.74 51.97 69.11 66.63 71.48 76.19 69.11 85.75"/><polygon class="cls-4" points="69.11 85.75 71.48 76.19 69.11 66.63 66.74 76.19 69.11 85.75"/><polygon class="cls-3" points="78.39 115.07 74.75 100.41 74.75 100.42 72.74 100.42 72.74 100.41 69.11 115.07 71.48 124.63 69.11 134.19 72.74 148.85 74.75 148.85 78.39 134.19 76.02 124.63 78.39 115.07"/><polygon class="cls-4" points="69.11 115.07 66.74 124.63 69.11 134.19 71.48 124.63 69.11 115.07"/><polygon class="cls-3" points="72.74 100.41 72.74 100.41 72.74 100.42 74.75 100.42 74.75 100.41 74.75 100.41 72.74 100.41"/><polygon class="cls-3" points="78.39 37.3 82.02 51.96 84.03 51.96 87.66 37.3 85.29 27.74 87.66 18.18 84.03 3.52 82.02 3.52 78.39 18.18 80.75 27.74 78.39 37.3"/><polygon class="cls-4" points="78.39 37.3 80.75 27.74 78.39 18.18 76.02 27.74 78.39 37.3"/><polygon class="cls-3" points="78.39 85.75 82.02 100.41 82.02 100.41 84.03 100.41 84.03 100.41 87.66 85.75 85.29 76.19 87.66 66.63 84.03 51.97 82.02 51.97 78.39 66.63 80.75 76.19 78.39 85.75"/><polygon class="cls-4" points="78.39 85.75 80.75 76.19 78.39 66.63 76.02 76.19 78.39 85.75"/><polygon class="cls-3" points="87.66 115.07 84.03 100.41 84.03 100.42 82.02 100.42 82.02 100.41 78.39 115.07 80.75 124.63 78.39 134.19 82.02 148.85 84.03 148.85 87.66 134.19 85.29 124.63 87.66 115.07"/><polygon class="cls-4" points="78.39 115.07 76.02 124.63 78.39 134.19 80.75 124.63 78.39 115.07"/><polygon class="cls-3" points="82.02 100.41 82.02 100.41 82.02 100.42 84.03 100.42 84.03 100.41 84.03 100.41 82.02 100.41"/><polygon class="cls-3" points="87.66 37.3 91.3 51.96 93.31 51.96 96.94 37.3 94.57 27.74 96.94 18.18 93.31 3.52 91.3 3.52 87.66 18.18 90.03 27.74 87.66 37.3"/><polygon class="cls-4" points="87.66 37.3 90.03 27.74 87.66 18.18 85.29 27.74 87.66 37.3"/><polygon class="cls-3" points="87.66 85.75 91.29 100.41 91.3 100.41 93.31 100.41 93.31 100.41 96.94 85.75 94.57 76.19 96.94 66.63 93.31 51.97 91.3 51.97 87.66 66.63 90.03 76.19 87.66 85.75"/><polygon class="cls-4" points="87.66 85.75 90.03 76.19 87.66 66.63 85.29 76.19 87.66 85.75"/><polygon class="cls-3" points="96.94 115.07 93.31 100.41 93.31 100.42 91.3 100.42 91.29 100.41 87.66 115.07 90.03 124.63 87.66 134.19 91.3 148.85 93.31 148.85 96.94 134.19 94.57 124.63 96.94 115.07"/><polygon class="cls-4" points="87.66 115.07 85.29 124.63 87.66 134.19 90.03 124.63 87.66 115.07"/><polygon class="cls-3" points="91.3 100.41 91.29 100.41 91.3 100.42 93.31 100.42 93.31 100.41 93.31 100.41 91.3 100.41"/><polygon class="cls-3" points="96.94 37.3 100.57 51.96 102.59 51.96 106.22 37.3 103.85 27.74 106.22 18.18 102.59 3.52 100.57 3.52 96.94 18.18 99.31 27.74 96.94 37.3"/><polygon class="cls-4" points="96.94 37.3 99.31 27.74 96.94 18.18 94.57 27.74 96.94 37.3"/><polygon class="cls-3" points="96.94 85.75 100.57 100.41 100.57 100.41 102.59 100.41 102.59 100.41 106.22 85.75 103.85 76.19 106.22 66.63 102.59 51.97 100.57 51.97 96.94 66.63 99.31 76.19 96.94 85.75"/><polygon class="cls-4" points="96.94 85.75 99.31 76.19 96.94 66.63 94.57 76.19 96.94 85.75"/><polygon class="cls-3" points="106.22 115.07 102.59 100.41 102.59 100.42 100.57 100.42 100.57 100.41 96.94 115.07 99.31 124.63 96.94 134.19 100.57 148.85 102.59 148.85 106.22 134.19 103.85 124.63 106.22 115.07"/><polygon class="cls-4" points="96.94 115.07 94.57 124.63 96.94 134.19 99.31 124.63 96.94 115.07"/><polygon class="cls-3" points="100.57 100.41 100.57 100.41 100.57 100.42 102.59 100.42 102.59 100.41 102.59 100.41 100.57 100.41"/><polygon class="cls-3" points="106.22 37.3 109.85 51.96 111.86 51.96 117.86 27.74 111.86 3.52 109.85 3.52 106.22 18.18 108.59 27.74 106.22 37.3"/><polygon class="cls-4" points="106.22 37.3 108.59 27.74 106.22 18.18 103.85 27.74 106.22 37.3"/><polygon class="cls-3" points="111.86 51.97 109.85 51.97 106.22 66.63 108.59 76.19 106.22 85.75 109.85 100.41 109.85 100.41 111.86 100.41 111.86 100.41 117.86 76.19 111.86 51.97"/><polygon class="cls-4" points="106.22 85.75 108.59 76.19 106.22 66.63 103.85 76.19 106.22 85.75"/><polygon class="cls-3" points="109.85 100.42 109.85 100.41 106.22 115.07 108.59 124.63 106.22 134.19 109.85 148.85 111.86 148.85 117.86 124.63 111.86 100.41 111.86 100.42 109.85 100.42"/><polygon class="cls-4" points="106.22 115.07 103.85 124.63 106.22 134.19 108.59 124.63 106.22 115.07"/><polygon class="cls-3" points="109.85 100.41 109.85 100.41 109.85 100.42 111.86 100.42 111.86 100.41 111.86 100.41 109.85 100.41"/></g></g></svg>