<svg xmlns="http://www.w3.org/2000/svg" xmlns:xlink="http://www.w3.org/1999/xlink" viewBox="0 0 123.05 218.33"><defs><style>.cls-1{fill:none;}.cls-2{clip-path:url(#clip-path);}.cls-3{fill:#f97c6b;}.cls-4{fill:#404f3d;}.cls-5{fill:#32447f;}.cls-6{fill:#9dc9b3;}.cls-7{fill:#c17c6c;}</style><clipPath id="clip-path" transform="translate(2.97 66.29)"><rect class="cls-1" width="119.93" height="152.03"/></clipPath></defs><g id="Layer_2" data-name="Layer 2"><g id="图层_1" data-name="图层 1"><g class="cls-2"><rect class="cls-3" x="2.97" y="66.29" width="119.93" height="152.03"/><path class="cls-4" d="M34.66,152c0-51.87-4.39-96.33-10.64-115.12-2.76,13.55-6.1,21.47-9.7,21.47-2.35,0-4.6-3.41-6.65-9.56C3.1,71.26.09,109.11.09,152Z" transform="translate(2.97 66.29)"/><path class="cls-4" d="M17.37,27.37c2.36,0,4.61,3.4,6.65,9.55C28.6,14.5,31.61-23.36,31.61-66.29H-3C-3-14.42,1.43,30,7.67,48.83,10.44,35.28,13.78,27.37,17.37,27.37Z" transform="translate(2.97 66.29)"/><path class="cls-5" d="M17.37,27.37c-3.59,0-6.93,7.91-9.7,21.46C9.72,55,12,58.39,14.32,58.39c3.6,0,6.94-7.92,9.7-21.47C22,30.77,19.73,27.37,17.37,27.37Z" transform="translate(2.97 66.29)"/><path class="cls-6" d="M29-.31c0,83.91,7.46,151.94,16.68,151.94S62.32,83.6,62.32-.31" transform="translate(2.97 66.29)"/><path class="cls-4" d="M86.57,94C79.7,94,73.5,82.92,69.08,65.15c-8.31,14-14.16,47.61-14.16,86.89h45.53c0-21.38-1.73-41.08-4.65-56.86-.55-1.8-1.08-3.79-1.59-6C91.81,92.3,89.24,94,86.57,94Z" transform="translate(2.97 66.29)"/><path class="cls-6" d="M86.72.1v0h24.1c0,41.06-6.82,76-16.31,88.68q.67,3.06,1.29,6.35c2.28,7.49,4.86,11.71,7.6,11.71,9.21,0,16.68-47.81,16.68-106.79Z" transform="translate(2.97 66.29)"/><path class="cls-6" d="M94.21,89.23c.51,2.16,1,4.15,1.59,6q-.61-3.29-1.29-6.35Z" transform="translate(2.97 66.29)"/><path class="cls-5" d="M77.68,58.22c5.63,0,10.77,8.4,14.75,22.32C88.93,61,86.72,32.22,86.72.15H62.32c0,25.24,2.58,48.14,6.76,65C71.74,60.68,74.64,58.22,77.68,58.22Z" transform="translate(2.97 66.29)"/><path class="cls-7" d="M86.57,94c2.67,0,5.24-1.68,7.64-4.75q-.94-4-1.78-8.69c-4-13.92-9.12-22.32-14.75-22.32-3,0-5.94,2.46-8.6,6.93C73.5,82.92,79.7,94,86.57,94Z" transform="translate(2.97 66.29)"/><path class="cls-6" d="M94.51,88.83C104,76.11,110.82,41.21,110.82.15H86.72c0,32.07,2.21,60.83,5.71,80.39C93.16,83.12,93.86,85.89,94.51,88.83Z" transform="translate(2.97 66.29)"/><path class="cls-6" d="M94.21,89.23l.3-.4c-.65-2.94-1.35-5.71-2.08-8.29Q93.27,85.25,94.21,89.23Z" transform="translate(2.97 66.29)"/></g></g></g></svg>