<svg xmlns="http://www.w3.org/2000/svg" xmlns:xlink="http://www.w3.org/1999/xlink" viewBox="0 0 121.06 218.23"><defs><style>.cls-1{fill:none;}.cls-2{fill:#f97c6b;}.cls-3{clip-path:url(#clip-path);}.cls-4{fill:#39f219;}</style><clipPath id="clip-path" transform="translate(0.58 30.82)"><rect class="cls-1" width="119.93" height="152.03"/></clipPath></defs><g id="Layer_2" data-name="Layer 2"><g id="图层_1" data-name="图层 1"><rect class="cls-2" x="0.58" y="30.82" width="119.93" height="152.03"/><g class="cls-3"><path class="cls-4" d="M29.91,187.41H-.57V148.13A30.38,30.38,0,0,1,45,121.79l.27.16-.27.15a30.15,30.15,0,0,0-15.06,26Zm-30.13-.35H29.57V148.13a30.47,30.47,0,0,1,15-26.18A30,30,0,0,0-.22,148.13Z" transform="translate(0.58 30.82)"/><path class="cls-4" d="M60.13,146.06h-.35a30,30,0,0,0-15-24l-.26-.15.26-.16a30.38,30.38,0,0,1,30.31,0l.26.16-.26.15A30,30,0,0,0,60.13,146.06ZM45.24,122A30.3,30.3,0,0,1,60,144.25,30.34,30.34,0,0,1,74.67,122a30,30,0,0,0-29.43,0Z" transform="translate(0.58 30.82)"/><path class="cls-4" d="M29.91,148.13h-.34A30.49,30.49,0,0,1,44.8,121.79l.09-.05.08.05A30.36,30.36,0,0,1,60.13,146l-.35,0a30,30,0,0,0-14.89-23.91A30.14,30.14,0,0,0,29.91,148.13Z" transform="translate(0.58 30.82)"/><polygon class="cls-4" points="60.46 218.23 30.15 218.23 30.15 178.95 30.5 178.95 30.5 217.88 60.46 217.88 60.46 218.23"/><path class="cls-4" d="M120.48,187.41H90V148.13a30.13,30.13,0,0,0-15.06-26l-.26-.15.26-.16a30.39,30.39,0,0,1,45.55,26.34Zm-30.14-.35h29.79V148.13A30,30,0,0,0,75.37,122a30.49,30.49,0,0,1,15,26.18Z" transform="translate(0.58 30.82)"/><path class="cls-4" d="M90.34,187.41H60v-.35H90V148.13a30.13,30.13,0,0,0-15-26,30,30,0,0,0-14.89,23.91l-.35,0a30.34,30.34,0,0,1,15.15-24.24l.09-.05.09.05a30.51,30.51,0,0,1,15.23,26.34Z" transform="translate(0.58 30.82)"/><path class="cls-4" d="M29.91,148h-.34V108.84a30.47,30.47,0,0,1,15-26.18A30,30,0,0,0-.22,108.84V148H-.57V108.84A30.37,30.37,0,0,1,45,82.51l.27.15-.27.15a30.15,30.15,0,0,0-15.06,26Z" transform="translate(0.58 30.82)"/><path class="cls-4" d="M60.13,106.77h-.35a30,30,0,0,0-15-24l-.26-.15.26-.15a30.31,30.31,0,0,1,30.31,0l.26.15-.26.15A30,30,0,0,0,60.13,106.77ZM45.24,82.66A30.32,30.32,0,0,1,60,105a30.36,30.36,0,0,1,14.72-22.3,30,30,0,0,0-29.43,0Z" transform="translate(0.58 30.82)"/><path class="cls-4" d="M29.91,148h-.34V108.84A30.47,30.47,0,0,1,44.8,82.51l.09-.06.08.06a30.32,30.32,0,0,1,15.16,24.23l-.35,0A30,30,0,0,0,44.89,82.86a30.14,30.14,0,0,0-15,26Z" transform="translate(0.58 30.82)"/><path class="cls-4" d="M120.48,148h-.35V108.84A30,30,0,0,0,75.37,82.66a30.49,30.49,0,0,1,15,26.18V148H90V108.84a30.13,30.13,0,0,0-15.06-26l-.26-.15.26-.15a30.38,30.38,0,0,1,45.55,26.33Z" transform="translate(0.58 30.82)"/><path class="cls-4" d="M90.34,148H90V108.84a30.13,30.13,0,0,0-15-26,30,30,0,0,0-14.89,23.91l-.35,0A30.31,30.31,0,0,1,74.93,82.51l.09-.06.09.06a30.49,30.49,0,0,1,15.23,26.33Z" transform="translate(0.58 30.82)"/><path class="cls-4" d="M29.9,108.85h-.35V69.74a30.51,30.51,0,0,1,15-26.18A30,30,0,0,0-.23,69.74v39.11H-.58V69.74A30.38,30.38,0,0,1,45,43.41l.26.15-.26.15a30.14,30.14,0,0,0-15.06,26Z" transform="translate(0.58 30.82)"/><path class="cls-4" d="M60.11,67.67h-.35a30,30,0,0,0-15-24l-.26-.15.26-.15a30.38,30.38,0,0,1,30.31,0l.27.15-.27.15A30,30,0,0,0,60.11,67.67ZM45.22,43.56a30.36,30.36,0,0,1,14.72,22.3,30.31,30.31,0,0,1,14.72-22.3,30.07,30.07,0,0,0-29.44,0Z" transform="translate(0.58 30.82)"/><path class="cls-4" d="M29.9,108.85h-.35V69.74A30.5,30.5,0,0,1,44.78,43.41l.09,0,.09,0A30.31,30.31,0,0,1,60.11,67.65l-.35,0A30,30,0,0,0,44.87,43.76a30.14,30.14,0,0,0-15,26Z" transform="translate(0.58 30.82)"/><path class="cls-4" d="M120.46,108.85h-.35V69.74A30,30,0,0,0,75.36,43.56a30.51,30.51,0,0,1,15,26.18v39.11H90V69.74a30.14,30.14,0,0,0-15.06-26l-.26-.15.26-.15a30.38,30.38,0,0,1,45.54,26.33Z" transform="translate(0.58 30.82)"/><path class="cls-4" d="M90.33,108.85H90V69.74a30.16,30.16,0,0,0-15-26,30,30,0,0,0-14.9,23.91l-.35,0A30.33,30.33,0,0,1,74.92,43.41l.09,0,.08,0A30.49,30.49,0,0,1,90.33,69.74Z" transform="translate(0.58 30.82)"/><path class="cls-4" d="M29.9,69.56h-.35V30.46a30.51,30.51,0,0,1,15-26.19A30,30,0,0,0-.23,30.46v39.1H-.58V30.46A30.38,30.38,0,0,1,45,4.12l.26.15L45,4.42a30.15,30.15,0,0,0-15.06,26Z" transform="translate(0.58 30.82)"/><path class="cls-4" d="M60.11,28.38h-.35a30,30,0,0,0-15-24l-.26-.15.26-.15a30.38,30.38,0,0,1,30.31,0l.27.15-.27.15A30,30,0,0,0,60.11,28.38ZM45.22,4.27a30.36,30.36,0,0,1,14.72,22.3A30.31,30.31,0,0,1,74.66,4.27a30.07,30.07,0,0,0-29.44,0Z" transform="translate(0.58 30.82)"/><path class="cls-4" d="M120.46,69.56h-.35V30.46A30,30,0,0,0,75.36,4.27a30.51,30.51,0,0,1,15,26.19v39.1H90V30.46a30.15,30.15,0,0,0-15.06-26l-.26-.15.26-.15a30.38,30.38,0,0,1,45.54,26.34Z" transform="translate(0.58 30.82)"/><path class="cls-4" d="M60.11,153.22h-.35V28.37A30.33,30.33,0,0,1,74.92,4.12l.09,0,.08,0A30.5,30.5,0,0,1,90.33,30.46v39.1H90V30.46a30.17,30.17,0,0,0-15-26,30,30,0,0,0-14.9,23.91Z" transform="translate(0.58 30.82)"/><path class="cls-4" d="M29.9,38.68h-.35V-.43a30.49,30.49,0,0,1,15-26.18,30.06,30.06,0,0,0-14.71-3.86,30.07,30.07,0,0,0-30,30V38.68H-.58V-.43A30.43,30.43,0,0,1,29.81-30.82,30.3,30.3,0,0,1,45-26.76l.26.15-.26.15A30.14,30.14,0,0,0,29.9-.43Z" transform="translate(0.58 30.82)"/><path class="cls-4" d="M60.11-2.5h-.35a30,30,0,0,0-15-24l-.26-.15.26-.15a30.31,30.31,0,0,1,15.16-4.06,30.25,30.25,0,0,1,15.15,4.06l.27.15-.27.15A30,30,0,0,0,60.11-2.5ZM45.22-26.61A30.36,30.36,0,0,1,59.94-4.31a30.31,30.31,0,0,1,14.72-22.3,30.09,30.09,0,0,0-14.72-3.86A30.06,30.06,0,0,0,45.22-26.61Z" transform="translate(0.58 30.82)"/><path class="cls-4" d="M120.46,38.68h-.35V-.43a30.07,30.07,0,0,0-30-30,30.06,30.06,0,0,0-14.71,3.86,30.49,30.49,0,0,1,15,26.18V38.68H90V-.43a30.14,30.14,0,0,0-15.06-26l-.26-.15.26-.15a30.3,30.3,0,0,1,15.15-4.06A30.43,30.43,0,0,1,120.46-.43Z" transform="translate(0.58 30.82)"/><path class="cls-4" d="M60.11,122.34h-.35V-2.51A30.33,30.33,0,0,1,74.92-26.76l.09,0,.08,0A30.49,30.49,0,0,1,90.33-.43V38.68H90V-.43a30.15,30.15,0,0,0-15-26A30,30,0,0,0,60.11-2.5Z" transform="translate(0.58 30.82)"/></g></g></g></svg>