<svg xmlns="http://www.w3.org/2000/svg" viewBox="0 0 119.93 152.09"><defs><style>.cls-1{fill:#9dc9b3;}.cls-2{fill:#c46691;}.cls-3{fill:#32447f;}</style></defs><g id="Layer_2" data-name="Layer 2"><g id="图层_1" data-name="图层 1"><rect class="cls-1" width="119.93" height="152.03"/><path class="cls-2" d="M90.68,28.8H29.31A30.61,30.61,0,0,0,38.78,51H81.21A30.61,30.61,0,0,0,90.68,28.8Z"/><path class="cls-2" d="M98.35,51H81.21a30.65,30.65,0,0,1-42.43,0H21.64A38.19,38.19,0,0,0,28,72.15H92A38.12,38.12,0,0,0,98.35,51Z"/><path class="cls-2" d="M103.58,92.15a48,48,0,0,1-87.17,0H.06a59.94,59.94,0,1,0,119.87,0Z"/><path class="cls-2" d="M107.94,72.15H92a38.36,38.36,0,0,1-63.94,0h-16a47.7,47.7,0,0,0,4.36,20h87.17A47.7,47.7,0,0,0,107.94,72.15Z"/><circle class="cls-3" cx="60.11" cy="14.51" r="14.51"/></g></g></svg>