<svg xmlns="http://www.w3.org/2000/svg" xmlns:xlink="http://www.w3.org/1999/xlink" viewBox="0 0 183.53 248.4"><defs><style>.cls-1{fill:none;}.cls-2{fill:#363636;}.cls-3{clip-path:url(#clip-path);}.cls-4{fill:#c78225;}.cls-5{fill:#cc9a62;}.cls-6{fill:#39f219;}.cls-7{fill:#f97c6b;}</style><clipPath id="clip-path"><rect class="cls-1" x="32.87" y="51.28" width="119.93" height="152.03"/></clipPath></defs><g id="Layer_2" data-name="Layer 2"><g id="图层_1" data-name="图层 1"><rect class="cls-2" width="183.53" height="248.4"/><g class="cls-3"><rect class="cls-4" x="32.87" y="51.28" width="119.93" height="152.03"/><rect class="cls-5" x="32.87" y="51.28" width="119.93" height="152.03"/><rect class="cls-1" x="139.93" y="88.23" width="1.19" height="45.19"/><rect class="cls-1" x="43.79" y="189.29" width="35.53" height="14.03"/><polygon class="cls-1" points="33.29 97.23 60.76 97.23 60.76 69.77 79.32 69.77 79.32 66.09 32.87 66.09 32.87 152.48 33.29 152.48 33.29 97.23"/><polygon class="cls-6" points="60.76 161.82 60.76 97.23 35.35 97.23 35.35 152.48 43.79 152.48 43.79 189.29 79.32 189.29 79.32 161.82 60.76 161.82"/><polygon class="cls-6" points="60.76 97.23 112.47 97.23 112.47 133.42 139.93 133.42 139.93 88.23 79.32 88.23 79.32 69.77 60.76 69.77 60.76 97.23"/><polygon class="cls-7" points="68.92 161.82 68.92 149.33 83.49 149.33 83.49 133.42 60.76 133.42 60.76 161.82 68.92 161.82"/><polygon class="cls-6" points="79.32 60.31 79.32 69.77 139.93 69.77 139.93 88.23 152.9 88.23 152.9 60.31 79.32 60.31"/><rect class="cls-7" x="79.32" y="76.91" width="37.15" height="11.32"/><polygon class="cls-6" points="139.93 161.82 112.47 161.82 112.47 189.29 79.32 189.29 79.32 203.32 149.37 203.32 149.37 133.42 139.93 133.42 139.93 161.82"/><rect class="cls-7" x="79.32" y="161.82" width="44.12" height="27.46"/><rect class="cls-7" x="96.85" y="117.8" width="27.46" height="28.4"/><rect class="cls-6" x="79.32" y="133.42" width="33.15" height="28.4"/><polygon class="cls-6" points="35.35 189.29 35.35 152.48 32.87 152.48 32.87 203.32 43.79 203.32 43.79 189.29 35.35 189.29"/><rect class="cls-7" x="37.22" y="166.26" width="6.57" height="23.03"/></g></g></g></svg>